<?xml version="1.0" encoding="UTF-8"?>
<svg width="252px" height="99px" viewBox="0 0 252 99" version="1.1" xmlns="http://www.w3.org/2000/svg" xmlns:xlink="http://www.w3.org/1999/xlink">
    <title>Group 50</title>
    <defs>
        <polygon id="path-1" points="0 98.9056 252 98.9056 252 -0.0004 0 -0.0004"></polygon>
    </defs>
    <g id="Page-1" stroke="none" stroke-width="1" fill="none" fill-rule="evenodd">
        <g id="Homepage-Blue" transform="translate(-135.000000, -31.000000)">
            <g id="Group-50" transform="translate(135.000000, 31.000000)">
                <path d="M69.6787,67.7086 L69.6787,67.7086 C69.3257,67.6206 68.9977,67.5116 68.6807,67.3936 C68.9977,67.5116 69.3257,67.6196 69.6787,67.7086" id="Fill-1" fill="#8FAA4C"></path>
                <path d="M55.8862,64.2047 C55.8202,64.2607 55.7532,64.3177 55.6862,64.3757 C55.7532,64.3177 55.8202,64.2607 55.8862,64.2047" id="Fill-3" fill="#8FAA4C"></path>
                <path d="M57.9604,62.8932 C57.6754,62.9972 57.4114,63.1272 57.1594,63.2752 C57.4124,63.1272 57.6754,62.9972 57.9604,62.8932" id="Fill-5" fill="#8FAA4C"></path>
                <path d="M59.167,62.611 C59.411,62.584 59.671,62.569 59.95,62.569 C59.233,62.569 58.649,62.672 58.128,62.841 C58.447,62.738 58.783,62.654 59.167,62.611" id="Fill-7" fill="#8FAA4C"></path>
                <path d="M45.1387,62.8248 C45.1377,62.8238 45.1377,62.8238 45.1367,62.8228 C45.8007,63.1448 46.5567,63.3388 47.5667,63.3388 C49.7787,63.3388 50.8007,62.4398 52.2127,61.1978 C53.8867,59.7228 55.9707,57.8888 59.9497,57.8888 C63.9287,57.8888 66.0127,59.7228 67.6857,61.1968 C69.0987,62.4398 70.1187,63.3388 72.3327,63.3388 C74.5447,63.3388 75.5667,62.4408 76.9787,61.1978 C78.6537,59.7228 80.7377,57.8888 84.7167,57.8888 C88.6957,57.8888 90.7797,59.7228 92.4547,61.1968 C93.7947,62.3768 94.7967,63.2328 96.7837,63.3198 C98.0827,58.9288 98.7957,54.2928 98.7957,49.4848 C98.7957,48.1758 98.7177,46.8848 98.6107,45.6028 L53.4287,45.6028 L40.0137,36.6068 L25.9857,45.6028 L18.4977,45.6028 L18.4977,28.7198 L4.5777,28.7198 C2.0017,34.2478 0.3947,40.3138 0.0317,46.7138 C16.6547,47.5408 32.2597,53.2968 45.1387,62.8248" id="Fill-9" fill="#8FAA4C"></path>
                <path d="M70.7319,94.0202 C70.7329,94.0232 70.7339,94.0252 70.7349,94.0282 C70.7339,94.0252 70.7329,94.0232 70.7319,94.0202" id="Fill-11" fill="#8FAA4C"></path>
                <path d="M56.9395,63.4088 C56.7115,63.5548 56.4885,63.7138 56.2675,63.8888 C56.4885,63.7138 56.7115,63.5548 56.9395,63.4088" id="Fill-13" fill="#8FAA4C"></path>
                <path d="M65.1558,65.1979 C64.9638,65.0329 64.7758,64.8689 64.5948,64.7099 C64.7758,64.8689 64.9638,65.0329 65.1558,65.1979" id="Fill-15" fill="#8FAA4C"></path>
                <path d="M68.4009,67.2809 C68.1759,67.1879 67.9599,67.0909 67.7519,66.9859 C67.9599,67.0909 68.1759,67.1879 68.4009,67.2809" id="Fill-17" fill="#8FAA4C"></path>
                <path d="M84.687,62.5709 C84.698,62.5709 84.707,62.5689 84.717,62.5689 C84.707,62.5689 84.698,62.5699 84.687,62.5709" id="Fill-19" fill="#8FAA4C"></path>
                <path d="M67.5039,66.861 C67.2359,66.716 66.9769,66.566 66.7339,66.407 C66.9769,66.566 67.2349,66.716 67.5039,66.861" id="Fill-21" fill="#8FAA4C"></path>
                <path d="M65.8115,65.736 C65.6485,65.607 65.4895,65.478 65.3365,65.349 C65.4895,65.479 65.6485,65.607 65.8115,65.736" id="Fill-23" fill="#8FAA4C"></path>
                <path d="M66.7266,66.402 C66.4776,66.239 66.2446,66.069 66.0186,65.897 C66.2446,66.069 66.4776,66.239 66.7266,66.402" id="Fill-25" fill="#8FAA4C"></path>
                <path d="M126.6387,18.4635 C125.5127,20.1715 123.5417,21.2985 121.1947,21.2985 C117.4967,21.2985 114.6997,18.3135 114.6997,14.6715 C114.6997,10.9925 117.4967,8.0255 121.1947,8.0255 C123.5037,8.0255 125.4567,9.1145 126.5827,10.7665 L124.3487,12.3065 C123.6537,11.2925 122.5277,10.6165 121.1947,10.6165 C119.0357,10.6165 117.4587,12.4185 117.4587,14.6715 C117.4587,16.9055 119.0357,18.7085 121.1947,18.7085 C122.5467,18.7085 123.7287,17.9755 124.4237,16.9245 L126.6387,18.4635 Z" id="Fill-27" fill="#0095A3"></path>
                <path d="M135.7275,15.6661 L134.3575,11.1611 L133.0425,15.6661 L135.7275,15.6661 Z M132.1415,18.0511 L130.9965,21.1111 L128.0685,21.1111 L132.8735,8.1751 L135.8595,8.1751 L140.6455,21.1111 L137.7545,21.1111 L136.6105,18.0511 L132.1415,18.0511 Z" id="Fill-29" fill="#0095A3"></path>
                <path d="M145.9619,10.5978 L145.9619,14.2398 L148.3829,14.2398 C149.4529,14.2398 150.0169,13.2638 150.0169,12.4188 C150.0169,11.6118 149.4899,10.5978 148.4579,10.5978 L145.9619,10.5978 Z M143.2019,8.1758 L148.5149,8.1758 C151.4619,8.1758 152.7759,10.2978 152.7759,12.4188 C152.7759,14.5588 151.4619,16.6428 148.5149,16.6428 L145.9619,16.6428 L145.9619,21.1108 L143.2019,21.1108 L143.2019,8.1758 Z" id="Fill-31" fill="#0095A3"></path>
                <mask id="mask-2" fill="white">
                    <use xlink:href="#path-1"></use>
                </mask>
                <g id="Clip-34"></g>
                <polygon id="Fill-33" fill="#0095A3" mask="url(#mask-2)" points="155.859 21.1106 158.599 21.1106 158.599 8.1746 155.859 8.1746"></polygon>
                <polygon id="Fill-35" fill="#0095A3" mask="url(#mask-2)" points="161.7725 8.1754 171.5355 8.1754 171.5355 10.6544 168.0435 10.6544 168.0435 21.1114 165.2635 21.1114 165.2635 10.6544 161.7725 10.6544"></polygon>
                <path d="M179.7031,15.6661 L178.3331,11.1611 L177.0181,15.6661 L179.7031,15.6661 Z M176.1171,18.0511 L174.9721,21.1111 L172.0441,21.1111 L176.8491,8.1751 L179.8341,8.1751 L184.6211,21.1111 L181.7301,21.1111 L180.5861,18.0511 L176.1171,18.0511 Z" id="Fill-36" fill="#0095A3" mask="url(#mask-2)"></path>
                <polygon id="Fill-37" fill="#0095A3" mask="url(#mask-2)" points="187.1777 8.1754 189.9377 8.1754 189.9377 18.6894 194.7817 18.6894 194.7817 21.1114 187.1777 21.1114"></polygon>
                <path d="M208.5254,15.6661 L207.1554,11.1611 L205.8404,15.6661 L208.5254,15.6661 Z M204.9394,18.0511 L203.7944,21.1111 L200.8664,21.1111 L205.6714,8.1751 L208.6574,8.1751 L213.4434,21.1111 L210.5524,21.1111 L209.4084,18.0511 L204.9394,18.0511 Z" id="Fill-38" fill="#0095A3" mask="url(#mask-2)"></path>
                <path d="M218.7598,10.5978 L218.7598,14.2398 L221.0868,14.2398 C222.1568,14.2398 222.7208,13.2638 222.7208,12.4188 C222.7208,11.6118 222.1958,10.5978 221.1628,10.5978 L218.7598,10.5978 Z M225.5738,21.1108 L222.2708,21.1108 L219.3788,16.6428 L218.7598,16.6428 L218.7598,21.1108 L215.9998,21.1108 L215.9998,8.1758 L221.2938,8.1758 C224.2228,8.1758 225.5928,10.2978 225.5928,12.4188 C225.5928,14.2588 224.5788,16.0608 222.3638,16.5308 L225.5738,21.1108 Z" id="Fill-39" fill="#0095A3" mask="url(#mask-2)"></path>
                <polygon id="Fill-40" fill="#0095A3" mask="url(#mask-2)" points="229.0869 8.1754 237.2729 8.1754 237.2729 10.5974 231.8279 10.5974 231.8279 13.5454 236.5969 13.5454 236.5969 15.9284 231.8279 15.9284 231.8279 18.6894 237.4409 18.6894 237.4409 21.1114 229.0869 21.1114"></polygon>
                <path d="M247.0547,15.6661 L245.6847,11.1611 L244.3697,15.6661 L247.0547,15.6661 Z M243.4687,18.0511 L242.3237,21.1111 L239.3957,21.1111 L244.2007,8.1751 L247.1867,8.1751 L251.9727,21.1111 L249.0817,21.1111 L247.9377,18.0511 L243.4687,18.0511 Z" id="Fill-41" fill="#0095A3" mask="url(#mask-2)"></path>
                <path d="M146.083,27.1823 C140.406,27.1823 136.424,29.5043 133.976,34.2623 C134.108,32.5183 134.17,30.8103 134.17,28.9573 L134.17,28.2423 L114.809,28.2423 L114.809,38.6823 L120.815,38.6823 L120.815,65.4243 L115.781,65.4243 L115.781,75.8653 L140.44,75.8653 L140.44,65.4243 L134.611,65.4243 L134.611,51.2153 C134.611,44.2453 138.837,39.7423 145.377,39.7423 C146.488,39.7423 147.813,39.8903 149.211,40.1713 L150.007,40.3283 L150.905,27.8513 L150.061,27.6813 C148.779,27.4243 147.569,27.1823 146.083,27.1823" id="Fill-42" fill="#8FAA4C" mask="url(#mask-2)"></path>
                <path d="M194.3135,50.4201 C194.3135,61.4821 188.0675,65.4241 182.2235,65.4241 C179.7915,65.4241 176.7775,64.9131 175.0795,64.3891 L175.0795,49.6251 C175.0795,40.1041 181.3255,38.6821 185.0495,38.6821 C193.1095,38.6821 194.3135,46.0361 194.3135,50.4201 M189.5525,27.1821 C183.0135,27.1821 178.0765,29.6051 174.8495,34.3891 C175.0705,32.5991 175.2215,30.7521 175.1675,28.9361 L175.1455,28.2421 L154.4825,28.2421 L154.4825,38.6821 L161.5475,38.6821 L161.5475,87.5921 L156.5125,87.5921 L156.5125,98.0331 L180.6425,98.0331 L180.6425,87.5921 L175.3425,87.5921 L175.3425,76.2921 C177.3235,76.6641 179.8715,76.9241 181.6045,76.9241 C190.8065,76.9241 197.8225,73.8471 202.4545,67.7781 C206.1015,62.9991 208.1095,56.3321 208.1095,49.0061 C208.1095,35.7491 200.8265,27.1821 189.5525,27.1821" id="Fill-43" fill="#8FAA4C" mask="url(#mask-2)"></path>
                <path d="M252,44.3346 L252,29.5816 L251.498,29.4236 C246.67,27.9156 241.834,27.1826 236.712,27.1826 C221.523,27.1826 211.709,36.9616 211.709,52.0986 C211.709,67.1806 221.419,76.9246 236.447,76.9246 C242.63,76.9246 245.929,76.3986 250.563,74.6716 L250.995,74.5096 L251.815,62.4216 L250.719,62.9306 C247.095,64.6086 243.408,65.4246 239.45,65.4246 C236.179,65.4246 225.505,64.3676 225.505,50.7726 C225.505,44.4396 228.929,37.6226 236.447,37.6226 C237.717,37.6226 238.636,37.7516 239.971,38.0206 L239.971,44.3346 L252,44.3346 Z" id="Fill-44" fill="#8FAA4C" mask="url(#mask-2)"></path>
                <path d="M64.0693,96.6422 C64.8823,96.3872 65.6903,96.1182 66.4853,95.8222 C54.1673,69.8502 28.6923,52.8272 0.0003,51.3252 C0.0253,52.0122 0.0733,52.6932 0.1263,53.3722 C27.3833,56.0762 51.4123,72.2932 64.0693,96.6422" id="Fill-45" fill="#8FAA4C" mask="url(#mask-2)"></path>
                <path d="M0.2725,54.8659 C2.9645,79.5919 23.9435,98.9059 49.3745,98.9059 C53.9685,98.9059 58.4105,98.2609 62.6295,97.0739 C50.2135,73.3929 26.8225,57.5969 0.2725,54.8659" id="Fill-46" fill="#8FAA4C" mask="url(#mask-2)"></path>
                <path d="M22.6001,24.5451 L22.6001,41.4451 L24.7461,41.4451 L40.0531,31.6301 L54.6881,41.4451 L64.5371,41.4451 L64.5371,12.4411 L82.1081,12.4411 C73.3781,4.7121 61.9201,0.0001 49.3711,0.0001 C31.1831,0.0001 15.2821,9.8831 6.6871,24.5451 L22.6001,24.5451 Z" id="Fill-47" fill="#0095A3" mask="url(#mask-2)"></path>
                <path d="M86.2451,16.5787 L68.6781,16.5787 L68.6781,41.4457 L98.1831,41.4457 C96.6301,31.9827 92.3711,23.4327 86.2451,16.5787" id="Fill-48" fill="#8FAA4C" mask="url(#mask-2)"></path>
                <path d="M89.3633,64.7096 C87.9503,63.4666 86.9293,62.5686 84.7173,62.5686 C82.5033,62.5686 81.4833,63.4676 80.0703,64.7106 C78.3953,66.1846 76.3113,68.0186 72.3323,68.0186 C68.3533,68.0186 66.2693,66.1846 64.5953,64.7096 C63.1823,63.4666 62.1623,62.5686 59.9493,62.5686 C57.7373,62.5686 56.7163,63.4676 55.3033,64.7096 C54.1773,65.7016 52.8503,66.8436 50.9003,67.4936 C59.0963,74.7816 65.8953,83.7516 70.7433,94.0436 C81.8463,88.7106 90.6383,79.3476 95.2483,67.8546 C92.4443,67.3896 90.7533,65.9336 89.3633,64.7096" id="Fill-49" fill="#0095A3" mask="url(#mask-2)"></path>
            </g>
        </g>
    </g>
</svg>